#!OML:ASF H:\LiuWeirdWalks\Patient Classification 1\Patient 1\Session 1\male.ASF
:FULLY-SPECIFIED
:DEGREES
853
root 0.0482649 17.8569 32.7829 14.4664 75.659 12.918
lowerback 13.3332 0.643523 5.12128
upperback 0.624619 3.33057 13.3735
thorax -7.49165 2.03772 11.1842
lowerneck -20.1373 2.11569 8.85293
upperneck 16.4918 4.01839 -16.8106
head 9.06222 0.761783 -6.81084
rclavicle 1.19271e-014 -1.43125e-013
rhumerus -37.7614 -24.7352 -31.7536
rradius 34.2678
rwrist -20.3163
rhand -19.7171 -4.63144
rfingers 7.12502
rthumb 6.61288 -34.5082
lclavicle 1.19271e-014 -1.43125e-013
lhumerus -43.1281 -10.5111 97.4088
lradius 49.4969
lwrist 3.77162
lhand -5.22488 -7.08001
lfingers 7.12502
lthumb 20.5773 21.8494
rfemur -13.7858 -19.8894 13.8944
rtibia 40.2104
rfoot -15.5711 -39.3347
rtoes -0.056035
lfemur -16.1299 16.7814 -29.5878
ltibia 37.2946
lfoot -11.8282 29.7212
ltoes -2.19458
854
root 0.0512365 17.8426 32.7854 15.1316 76.7011 13.7037
lowerback 13.3908 0.627277 5.17646
upperback 0.605456 3.33486 13.347
thorax -7.54178 2.04126 11.1191
lowerneck -20.0524 2.09296 8.77636
upperneck 16.5233 4.00673 -16.7405
head 9.05195 0.762549 -6.77245
rclavicle 8.74653e-015 0
rhumerus -37.8865 -24.7372 -31.8309
rradius 34.3221
rwrist -20.1944
rhand -19.6328 -4.57558
rfingers 7.12502
rthumb 6.69427 -34.4498
lclavicle 8.74653e-015 0
lhumerus -43.172 -10.4668 97.4208
lradius 49.3728
lwrist 3.86846
lhand -5.09834 -6.60802
lfingers 7.12502
lthumb 20.6989 22.3081
rfemur -13.6039 -20.1716 13.8125
rtibia 40.625
rfoot -15.7038 -39.573
rtoes 0.0164908
lfemur -15.5521 16.2209 -29.5441
ltibia 36.4976
lfoot -11.52 29.7762
ltoes -1.65044
855
root 0.0649032 17.8269 32.783 15.7413 77.5249 14.5452
lowerback 13.4547 0.655661 5.25988
upperback 0.670218 3.38711 13.3013
thorax -7.50702 2.06308 10.9995
lowerneck -19.976 2.09216 8.74257
upperneck 16.5766 4.02534 -16.7131
head 9.0572 0.775629 -6.7546
rclavicle -5.24792e-014 -1.39944e-013
rhumerus -37.9844 -24.7465 -31.9067
rradius 34.3655
rwrist -20.0265
rhand -19.5295 -4.53716
rfingers 7.12502
rthumb 6.79404 -34.4082
lclavicle -5.24792e-014 -1.39944e-013
lhumerus -43.1941 -10.4366 97.4355
lradius 49.2232
lwrist 3.9632
lhand -4.97573 -6.1535
lfingers 7.12502
lthumb 20.8167 22.7498
rfemur -13.2964 -20.3364 13.5861
rtibia 41.0485
rfoot -15.712 -39.6624
rtoes -0.0144118
lfemur -14.7773 15.6908 -29.4967
ltibia 35.684
lfoot -11.4474 29.7658
ltoes -1.47559
856
root 0.086849 17.8102 32.7771 16.364 78.161 15.4721
lowerback 13.5083 0.722882 5.34675
upperback 0.800774 3.47677 13.241
thorax -7.39767 2.10001 10.8492
lowerneck -19.8898 2.11065 8.72969
upperneck 16.6218 4.07041 -16.7114
head 9.06297 0.800781 -6.74591
rclavicle -1.98785e-014 -7.31528e-014
rhumerus -38.0543 -24.7451 -31.9941
rradius 34.4107
rwrist -19.8535
rhand -19.4385 -4.49038
rfingers 7.12502
rthumb 6.88192 -34.3585
lclavicle -1.98785e-014 -7.31528e-014
lhumerus -43.1898 -10.3966 97.4476
lradius 49.0392
lwrist 4.03665
lhand -4.85156 -5.78911
lfingers 7.12502
lthumb 20.936 23.101
rfemur -12.9204 -20.3906 13.2392
rtibia 41.4992
rfoot -15.6405 -39.6302
rtoes -0.105756
lfemur -13.8683 15.179 -29.4665
ltibia 34.8725
lfoot -11.5011 29.7028
ltoes -1.64451
857
root 0.116405 17.7931 32.7666 17.0338 78.6174 16.398
lowerback 13.4289 0.83494 5.43743
upperback 0.969055 3.5991 13.1723
thorax -7.17453 2.15038 10.6774
lowerneck -19.8412 2.14724 8.7433
upperneck 16.6759 4.14166 -16.7505
head 9.08439 0.834474 -6.7545
rclavicle -1.55052e-014 -9.22361e-014
rhumerus -38.0832 -24.7151 -32.1033
rradius 34.4466
rwrist -19.6818
rhand -19.35 -4.46228
rfingers 7.12502
rthumb 6.96726 -34.3276
lclavicle -1.55052e-014 -9.22361e-014
lhumerus -43.1666 -10.3387 97.4536
lradius 48.8227
lwrist 4.0607
lhand -4.75055 -5.51485
lfingers 7.12502
lthumb 21.0331 23.3646
rfemur -12.6335 -20.3718 12.8417
rtibia 41.994
rfoot -15.4756 -39.4894
rtoes -0.264656
lfemur -12.9958 14.7083 -29.4889
ltibia 34.098
lfoot -11.7197 29.6054
ltoes -1.80597
858
root 0.146577 17.7761 32.7544 17.9234 79.0336 17.4902
lowerback 13.2835 0.958319 5.502
upperback 1.13688 3.72166 13.0999
thorax -6.91546 2.2017 10.5182
lowerneck -19.8229 2.20014 8.79489
upperneck 16.7188 4.23051 -16.8298
head 9.11228 0.874052 -6.78245
rclavicle -5.56597e-015 3.18055e-015
rhumerus -38.09 -24.6982 -32.2204
rradius 34.474
rwrist -19.5188
rhand -19.2772 -4.42563
rfingers 7.12502
rthumb 7.03755 -34.2886
lclavicle -5.56597e-015 3.18055e-015
lhumerus -43.1202 -10.2555 97.4476
lradius 48.5712
lwrist 4.03042
lhand -4.66164 -5.35901
lfingers 7.12502
lthumb 21.1185 23.5109
rfemur -12.4499 -20.361 12.4254
rtibia 42.5582
rfoot -15.322 -39.3075
rtoes -0.388437
lfemur -12.2278 14.2998 -29.5541
ltibia 33.41
lfoot -12.0311 29.4196
ltoes -1.90873
859
root 0.163909 17.7605 32.745 19.5498 79.6958 19.2135
lowerback 13.1614 1.01453 5.48505
upperback 1.21891 3.76266 13.0462
thorax -6.75848 2.21965 10.4518
lowerneck -19.8448 2.25091 8.8029
upperneck 16.7576 4.32095 -16.8834
head 9.14512 0.912313 -6.79324
rclavicle 1.35174e-014 -2.22639e-014
rhumerus -38.0672 -24.6981 -32.348
rradius 34.4936
rwrist -19.3919
rhand -19.2416 -4.39221
rfingers 7.12502
rthumb 7.0719 -34.2541
lclavicle 1.35174e-014 -2.22639e-014
lhumerus -43.0575 -10.1584 97.4434
lradius 48.3148
lwrist 3.99078
lhand -4.60766 -5.2344
lfingers 7.12502
lthumb 21.1703 23.6297
rfemur -12.4154 -20.517 12.0771
rtibia 43.1913
rfoot -15.2783 -39.2235
rtoes -0.376677
lfemur -11.684 13.803 -29.6376
ltibia 32.8371
lfoot -12.1492 29.0612
ltoes -2.17433
860
root 0.174625 17.7438 32.736 21.9148 80.4614 21.6048
lowerback 13.0217 1.03738 5.41738
upperback 1.25913 3.75734 13.0017
thorax -6.63461 2.21796 10.438
lowerneck -19.9307 2.31321 8.81174
upperneck 16.829 4.43449 -16.9613
head 9.20541 0.955942 -6.81251
rclavicle -1.47101e-014 -1.24042e-013
rhumerus -38.0122 -24.7131 -32.4777
rradius 34.5036
rwrist -19.2953
rhand -19.2368 -4.35678
rfingers 7.12502
rthumb 7.07658 -34.2185
lclavicle -1.47101e-014 -1.24042e-013
lhumerus -42.9807 -10.0406 97.4488
lradius 48.0427
lwrist 3.9281
lhand -4.57999 -5.16702
lfingers 7.12502
lthumb 21.1969 23.6941
rfemur -12.5033 -20.8065 11.7382
rtibia 43.9019
rfoot -15.2574 -39.1547
rtoes -0.24312
lfemur -11.3387 13.3587 -29.7629
ltibia 32.4071
lfoot -12.1938 28.5732
ltoes -2.44809
861
root 0.179383 17.7312 32.7273 25.2285 81.3107 24.9434
lowerback 12.9364 1.02302 5.30763
upperback 1.28129 3.70899 12.9657
thorax -6.55835 2.19774 10.4689
lowerneck -20.0227 2.37521 8.78213
upperneck 16.8859 4.55762 -17.0374
head 9.2629 1.0019 -6.82219
rclavicle 5.56597e-015 4.13472e-014
rhumerus -37.9144 -24.7487 -32.6075
rradius 34.4944
rwrist -19.228
rhand -19.259 -4.31755
rfingers 7.12502
rthumb 7.05513 -34.18
lclavicle 5.56597e-015 4.13472e-014
lhumerus -42.8838 -9.89835 97.4671
lradius 47.7649
lwrist 3.87645
lhand -4.59606 -5.08913
lfingers 7.12502
lthumb 21.1815 23.7737
rfemur -12.6234 -21.205 11.3765
rtibia 44.6745
rfoot -15.2502 -39.114
rtoes 0.0341123
lfemur -11.1024 12.9928 -29.9177
ltibia 32.1031
lfoot -12.2028 27.9761
ltoes -2.68817
862
root 0.181535 17.7193 32.718 29.6213 82.1473 29.3846
lowerback 12.8885 0.993607 5.17408
upperback 1.31413 3.64197 12.9331
thorax -6.49039 2.16925 10.5218
lowerneck -20.1003 2.42777 8.69147
upperneck 16.8926 4.67752 -17.0985
head 9.29865 1.04551 -6.81303
rclavicle 1.39149e-014 8.5875e-014
rhumerus -37.7773 -24.797 -32.7365
rradius 34.4753
rwrist -19.196
rhand -19.2957 -4.2968
rfingers 7.12502
rthumb 7.01972 -34.1604
lclavicle 1.39149e-014 8.5875e-014
lhumerus -42.7804 -9.74659 97.511
lradius 47.5108
lwrist 3.85714
lhand -4.64528 -4.99696
lfingers 7.12502
lthumb 21.1342 23.8712
rfemur -12.762 -21.6644 10.9607
rtibia 45.5242
rfoot -15.1959 -39.068
rtoes 0.404651
lfemur -10.917 12.6899 -30.1127
ltibia 31.8901
lfoot -12.216 27.3428
ltoes -2.84585
863
root 0.190244 17.7077 32.7054 34.5875 82.7623 34.429
lowerback 12.7863 1.03433 5.03482
upperback 1.39472 3.64748 12.8722
thorax -6.34816 2.17286 10.5281
lowerneck -20.1384 2.45032 8.61163
upperneck 16.8785 4.75191 -17.1632
head 9.31329 1.07025 -6.8119
rclavicle -3.97569e-016 3.49861e-014
rhumerus -37.7134 -24.8741 -32.8221
rradius 34.4539
rwrist -19.1372
rhand -19.3086 -4.29072
rfingers 7.12502
rthumb 7.00725 -34.1547
lclavicle -3.97569e-016 3.49861e-014
lhumerus -42.6875 -9.69945 97.5787
lradius 47.2616
lwrist 3.94232
lhand -4.74408 -4.85689
lfingers 7.12502
lthumb 21.0393 24.0218
rfemur -12.9271 -22.0447 10.449
rtibia 46.4472
rfoot -15.0365 -38.9451
rtoes 0.816309
lfemur -10.7134 12.5283 -30.3743
ltibia 31.7103
lfoot -12.3614 26.7626
ltoes -2.82842
864
root 0.202658 17.6957 32.6906 40.7063 83.1656 40.6223
lowerback 12.624 1.13796 4.79933
upperback 1.49231 3.70337 12.7646
thorax -6.16287 2.19941 10.5267
lowerneck -20.0958 2.43657 8.53429
upperneck 16.8025 4.76473 -17.2086
head 9.28173 1.07279 -6.8086
rclavicle 3.18055e-015 -1.27222e-013
rhumerus -37.741 -24.9802 -32.8665
rradius 34.4466
rwrist -19.0912
rhand -19.3028 -4.31455
rfingers 7.12502
rthumb 7.01286 -34.1784
lclavicle 3.18055e-015 -1.27222e-013
lhumerus -42.6108 -9.73981 97.6448
lradius 47.0217
lwrist 4.04502
lhand -4.83829 -4.70349
lfingers 7.12502
lthumb 20.9488 24.1853
rfemur -13.1651 -22.3938 9.78302
rtibia 47.468
rfoot -14.7355 -38.7673
rtoes 1.2512
lfemur -10.5101 12.454 -30.7722
ltibia 31.5284
lfoot -12.5977 26.1935
ltoes -2.70519
865
root 0.212156 17.6838 32.6771 48.1383 83.479 48.0979
lowerback 12.4569 1.26944 4.49252
upperback 1.56209 3.7865 12.6334
thorax -6.01225 2.23997 10.5365
lowerneck -20.0157 2.38782 8.50345
upperneck 16.7138 4.71367 -17.2575
head 9.23011 1.04977 -6.82284
rclavicle -1.07344e-014 2.22639e-014
rhumerus -37.8855 -25.1099 -32.8692
rradius 34.4551
rwrist -19.0511
rhand -19.2807 -4.35094
rfingers 7.12502
rthumb 7.03422 -34.2141
lclavicle -1.07344e-014 2.22639e-014
lhumerus -42.5458 -9.88419 97.7028
lradius 46.7746
lwrist 4.135
lhand -4.91259 -4.56845
lfingers 7.12502
lthumb 20.8774 24.3282
rfemur -13.4929 -22.7623 9.0867
rtibia 48.5811
rfoot -14.3525 -38.6104
rtoes 1.74355
lfemur -10.3278 12.3249 -31.2141
ltibia 31.3235
lfoot -12.788 25.5924
ltoes -2.62732
866
root 0.220291 17.6711 32.6642 56.6534 83.629 56.6556
lowerback 12.3055 1.42933 4.11615
upperback 1.61454 3.89834 12.4727
thorax -5.89642 2.29464 10.5493
lowerneck -19.9097 2.31354 8.51179
upperneck 16.6276 4.61542 -17.3064
head 9.16804 1.008 -6.85035
rclavicle -2.66371e-014 -5.725e-014
rhumerus -38.1321 -25.2359 -32.8353
rradius 34.4719
rwrist -19.007
rhand -19.2313 -4.37759
rfingers 7.12502
rthumb 7.0819 -34.2391
lclavicle -2.66371e-014 -5.725e-014
lhumerus -42.4994 -10.0976 97.7453
lradius 46.5253
lwrist 4.18119
lhand -4.96776 -4.43023
lfingers 7.12502
lthumb 20.8244 24.4722
rfemur -13.8732 -23.125 8.31463
rtibia 49.7765
rfoot -13.8888 -38.4531
rtoes 2.34976
lfemur -10.1275 12.1932 -31.7177
ltibia 31.0973
lfoot -12.9236 24.9426
ltoes -2.66489
